# Blender 3.6.20
# www.blender.org
mtllib floor.mtl
o floor
v -3.000000 0.000000 -1.000000
v -1.000000 0.000000 -1.000000
v -3.000000 0.000000 -3.000000
v -1.000000 0.000000 -3.000000
v -1.000000 0.000000 -1.000000
v 1.000000 0.000000 -1.000000
v -1.000000 0.000000 -3.000000
v 1.000000 0.000000 -3.000000
v -3.000000 0.000000 3.000000
v -1.000000 0.000000 3.000000
v -3.000000 0.000000 1.000000
v -1.000000 0.000000 1.000000
v -3.000000 0.000000 1.000000
v -1.000000 0.000000 1.000000
v -3.000000 0.000000 -1.000000
v -1.000000 0.000000 -1.000000
v -1.000000 0.000000 3.000000
v 1.000000 0.000000 3.000000
v -1.000000 0.000000 1.000000
v 1.000000 0.000000 1.000000
v -1.000000 0.000000 1.000000
v 1.000000 0.000000 1.000000
v -1.000000 0.000000 -1.000000
v 1.000000 0.000000 -1.000000
v 1.000000 0.000000 -1.000000
v 3.000000 0.000000 -1.000000
v 1.000000 0.000000 -3.000000
v 3.000000 0.000000 -3.000000
v 1.000000 0.000000 3.000000
v 3.000000 0.000000 3.000000
v 1.000000 0.000000 1.000000
v 3.000000 0.000000 1.000000
v 1.000000 0.000000 1.000000
v 3.000000 0.000000 1.000000
v 1.000000 0.000000 -1.000000
v 3.000000 0.000000 -1.000000
vn -0.0000 1.0000 -0.0000
vt 0.000000 0.000000
vt 1.000000 0.000000
vt 1.000000 1.000000
vt 0.000000 1.000000
s 0
usemtl Material.001
f 1/1/1 2/2/1 4/3/1 3/4/1
f 5/1/1 6/2/1 8/3/1 7/4/1
f 9/1/1 10/2/1 12/3/1 11/4/1
f 13/1/1 14/2/1 16/3/1 15/4/1
f 17/1/1 18/2/1 20/3/1 19/4/1
f 21/1/1 22/2/1 24/3/1 23/4/1
f 25/1/1 26/2/1 28/3/1 27/4/1
f 29/1/1 30/2/1 32/3/1 31/4/1
f 33/1/1 34/2/1 36/3/1 35/4/1
o floor.001
v 3.000000 0.000000 -1.000000
v 5.000000 0.000000 -1.000000
v 3.000000 0.000000 -3.000000
v 5.000000 0.000000 -3.000000
v 5.000000 0.000000 -1.000000
v 7.000000 0.000000 -1.000000
v 5.000000 0.000000 -3.000000
v 7.000000 0.000000 -3.000000
v 3.000000 0.000000 3.000000
v 5.000000 0.000000 3.000000
v 3.000000 0.000000 1.000000
v 5.000000 0.000000 1.000000
v 3.000000 0.000000 1.000000
v 5.000000 0.000000 1.000000
v 3.000000 0.000000 -1.000000
v 5.000000 0.000000 -1.000000
v 5.000000 0.000000 3.000000
v 7.000000 0.000000 3.000000
v 5.000000 0.000000 1.000000
v 7.000000 0.000000 1.000000
v 5.000000 0.000000 1.000000
v 7.000000 0.000000 1.000000
v 5.000000 0.000000 -1.000000
v 7.000000 0.000000 -1.000000
v 7.000000 0.000000 -1.000000
v 9.000000 0.000000 -1.000000
v 7.000000 0.000000 -3.000000
v 9.000000 0.000000 -3.000000
v 7.000000 0.000000 3.000000
v 9.000000 0.000000 3.000000
v 7.000000 0.000000 1.000000
v 9.000000 0.000000 1.000000
v 7.000000 0.000000 1.000000
v 9.000000 0.000000 1.000000
v 7.000000 0.000000 -1.000000
v 9.000000 0.000000 -1.000000
vn -0.0000 1.0000 -0.0000
vt 0.000000 0.000000
vt 1.000000 0.000000
vt 1.000000 1.000000
vt 0.000000 1.000000
s 0
usemtl Material.002
f 37/5/2 38/6/2 40/7/2 39/8/2
f 41/5/2 42/6/2 44/7/2 43/8/2
f 45/5/2 46/6/2 48/7/2 47/8/2
f 49/5/2 50/6/2 52/7/2 51/8/2
f 53/5/2 54/6/2 56/7/2 55/8/2
f 57/5/2 58/6/2 60/7/2 59/8/2
f 61/5/2 62/6/2 64/7/2 63/8/2
f 65/5/2 66/6/2 68/7/2 67/8/2
f 69/5/2 70/6/2 72/7/2 71/8/2
o floor.002
v -9.000000 0.000000 -1.000000
v -7.000000 0.000000 -1.000000
v -9.000000 0.000000 -3.000000
v -7.000000 0.000000 -3.000000
v -7.000000 0.000000 -1.000000
v -5.000000 0.000000 -1.000000
v -7.000000 0.000000 -3.000000
v -5.000000 0.000000 -3.000000
v -9.000000 0.000000 3.000000
v -7.000000 0.000000 3.000000
v -9.000000 0.000000 1.000000
v -7.000000 0.000000 1.000000
v -9.000000 0.000000 1.000000
v -7.000000 0.000000 1.000000
v -9.000000 0.000000 -1.000000
v -7.000000 0.000000 -1.000000
v -7.000000 0.000000 3.000000
v -5.000000 0.000000 3.000000
v -7.000000 0.000000 1.000000
v -5.000000 0.000000 1.000000
v -7.000000 0.000000 1.000000
v -5.000000 0.000000 1.000000
v -7.000000 0.000000 -1.000000
v -5.000000 0.000000 -1.000000
v -5.000000 0.000000 -1.000000
v -3.000000 0.000000 -1.000000
v -5.000000 0.000000 -3.000000
v -3.000000 0.000000 -3.000000
v -5.000000 0.000000 3.000000
v -3.000000 0.000000 3.000000
v -5.000000 0.000000 1.000000
v -3.000000 0.000000 1.000000
v -5.000000 0.000000 1.000000
v -3.000000 0.000000 1.000000
v -5.000000 0.000000 -1.000000
v -3.000000 0.000000 -1.000000
vn -0.0000 1.0000 -0.0000
vt 0.000000 0.000000
vt 1.000000 0.000000
vt 1.000000 1.000000
vt 0.000000 1.000000
s 0
usemtl Material.001
f 73/9/3 74/10/3 76/11/3 75/12/3
f 77/9/3 78/10/3 80/11/3 79/12/3
f 81/9/3 82/10/3 84/11/3 83/12/3
f 85/9/3 86/10/3 88/11/3 87/12/3
f 89/9/3 90/10/3 92/11/3 91/12/3
f 93/9/3 94/10/3 96/11/3 95/12/3
f 97/9/3 98/10/3 100/11/3 99/12/3
f 101/9/3 102/10/3 104/11/3 103/12/3
f 105/9/3 106/10/3 108/11/3 107/12/3
o floor.003
v -3.000000 0.000000 -7.000000
v -1.000000 0.000000 -7.000000
v -3.000000 0.000000 -9.000000
v -1.000000 0.000000 -9.000000
v -1.000000 0.000000 -7.000000
v 1.000000 0.000000 -7.000000
v -1.000000 0.000000 -9.000000
v 1.000000 0.000000 -9.000000
v -3.000000 0.000000 -3.000000
v -1.000000 0.000000 -3.000000
v -3.000000 0.000000 -5.000000
v -1.000000 0.000000 -5.000000
v -3.000000 0.000000 -5.000000
v -1.000000 0.000000 -5.000000
v -3.000000 0.000000 -7.000000
v -1.000000 0.000000 -7.000000
v -1.000000 0.000000 -3.000000
v 1.000000 0.000000 -3.000000
v -1.000000 0.000000 -5.000000
v 1.000000 0.000000 -5.000000
v -1.000000 0.000000 -5.000000
v 1.000000 0.000000 -5.000000
v -1.000000 0.000000 -7.000000
v 1.000000 0.000000 -7.000000
v 1.000000 0.000000 -7.000000
v 3.000000 0.000000 -7.000000
v 1.000000 0.000000 -9.000000
v 3.000000 0.000000 -9.000000
v 1.000000 0.000000 -3.000000
v 3.000000 0.000000 -3.000000
v 1.000000 0.000000 -5.000000
v 3.000000 0.000000 -5.000000
v 1.000000 0.000000 -5.000000
v 3.000000 0.000000 -5.000000
v 1.000000 0.000000 -7.000000
v 3.000000 0.000000 -7.000000
vn -0.0000 1.0000 -0.0000
vt 0.000000 0.000000
vt 1.000000 0.000000
vt 1.000000 1.000000
vt 0.000000 1.000000
s 0
usemtl Material.002
f 109/13/4 110/14/4 112/15/4 111/16/4
f 113/13/4 114/14/4 116/15/4 115/16/4
f 117/13/4 118/14/4 120/15/4 119/16/4
f 121/13/4 122/14/4 124/15/4 123/16/4
f 125/13/4 126/14/4 128/15/4 127/16/4
f 129/13/4 130/14/4 132/15/4 131/16/4
f 133/13/4 134/14/4 136/15/4 135/16/4
f 137/13/4 138/14/4 140/15/4 139/16/4
f 141/13/4 142/14/4 144/15/4 143/16/4
o floor.004
v -3.000000 0.000000 -13.000000
v -1.000000 0.000000 -13.000000
v -3.000000 0.000000 -15.000000
v -1.000000 0.000000 -15.000000
v -1.000000 0.000000 -13.000000
v 1.000000 0.000000 -13.000000
v -1.000000 0.000000 -15.000000
v 1.000000 0.000000 -15.000000
v -3.000000 0.000000 -9.000000
v -1.000000 0.000000 -9.000000
v -3.000000 0.000000 -11.000000
v -1.000000 0.000000 -11.000000
v -3.000000 0.000000 -11.000000
v -1.000000 0.000000 -11.000000
v -3.000000 0.000000 -13.000000
v -1.000000 0.000000 -13.000000
v -1.000000 0.000000 -9.000000
v 1.000000 0.000000 -9.000000
v -1.000000 0.000000 -11.000000
v 1.000000 0.000000 -11.000000
v -1.000000 0.000000 -11.000000
v 1.000000 0.000000 -11.000000
v -1.000000 0.000000 -13.000000
v 1.000000 0.000000 -13.000000
v 1.000000 0.000000 -13.000000
v 3.000000 0.000000 -13.000000
v 1.000000 0.000000 -15.000000
v 3.000000 0.000000 -15.000000
v 1.000000 0.000000 -9.000000
v 3.000000 0.000000 -9.000000
v 1.000000 0.000000 -11.000000
v 3.000000 0.000000 -11.000000
v 1.000000 0.000000 -11.000000
v 3.000000 0.000000 -11.000000
v 1.000000 0.000000 -13.000000
v 3.000000 0.000000 -13.000000
vn -0.0000 1.0000 -0.0000
vt 0.000000 0.000000
vt 1.000000 0.000000
vt 1.000000 1.000000
vt 0.000000 1.000000
s 0
usemtl Material.001
f 145/17/5 146/18/5 148/19/5 147/20/5
f 149/17/5 150/18/5 152/19/5 151/20/5
f 153/17/5 154/18/5 156/19/5 155/20/5
f 157/17/5 158/18/5 160/19/5 159/20/5
f 161/17/5 162/18/5 164/19/5 163/20/5
f 165/17/5 166/18/5 168/19/5 167/20/5
f 169/17/5 170/18/5 172/19/5 171/20/5
f 173/17/5 174/18/5 176/19/5 175/20/5
f 177/17/5 178/18/5 180/19/5 179/20/5
o floor.005
v -3.000000 0.000000 -19.000000
v -1.000000 0.000000 -19.000000
v -3.000000 0.000000 -21.000000
v -1.000000 0.000000 -21.000000
v -1.000000 0.000000 -19.000000
v 1.000000 0.000000 -19.000000
v -1.000000 0.000000 -21.000000
v 1.000000 0.000000 -21.000000
v -3.000000 0.000000 -15.000000
v -1.000000 0.000000 -15.000000
v -3.000000 0.000000 -17.000000
v -1.000000 0.000000 -17.000000
v -3.000000 0.000000 -17.000000
v -1.000000 0.000000 -17.000000
v -3.000000 0.000000 -19.000000
v -1.000000 0.000000 -19.000000
v -1.000000 0.000000 -15.000000
v 1.000000 0.000000 -15.000000
v -1.000000 0.000000 -17.000000
v 1.000000 0.000000 -17.000000
v -1.000000 0.000000 -17.000000
v 1.000000 0.000000 -17.000000
v -1.000000 0.000000 -19.000000
v 1.000000 0.000000 -19.000000
v 1.000000 0.000000 -19.000000
v 3.000000 0.000000 -19.000000
v 1.000000 0.000000 -21.000000
v 3.000000 0.000000 -21.000000
v 1.000000 0.000000 -15.000000
v 3.000000 0.000000 -15.000000
v 1.000000 0.000000 -17.000000
v 3.000000 0.000000 -17.000000
v 1.000000 0.000000 -17.000000
v 3.000000 0.000000 -17.000000
v 1.000000 0.000000 -19.000000
v 3.000000 0.000000 -19.000000
vn -0.0000 1.0000 -0.0000
vt 0.000000 0.000000
vt 1.000000 0.000000
vt 1.000000 1.000000
vt 0.000000 1.000000
s 0
usemtl Material.002
f 181/21/6 182/22/6 184/23/6 183/24/6
f 185/21/6 186/22/6 188/23/6 187/24/6
f 189/21/6 190/22/6 192/23/6 191/24/6
f 193/21/6 194/22/6 196/23/6 195/24/6
f 197/21/6 198/22/6 200/23/6 199/24/6
f 201/21/6 202/22/6 204/23/6 203/24/6
f 205/21/6 206/22/6 208/23/6 207/24/6
f 209/21/6 210/22/6 212/23/6 211/24/6
f 213/21/6 214/22/6 216/23/6 215/24/6
o floor.006
v -3.000000 0.000000 -25.000000
v -1.000000 0.000000 -25.000000
v -3.000000 0.000000 -27.000000
v -1.000000 0.000000 -27.000000
v -1.000000 0.000000 -25.000000
v 1.000000 0.000000 -25.000000
v -1.000000 0.000000 -27.000000
v 1.000000 0.000000 -27.000000
v -3.000000 0.000000 -21.000000
v -1.000000 0.000000 -21.000000
v -3.000000 0.000000 -23.000000
v -1.000000 0.000000 -23.000000
v -3.000000 0.000000 -23.000000
v -1.000000 0.000000 -23.000000
v -3.000000 0.000000 -25.000000
v -1.000000 0.000000 -25.000000
v -1.000000 0.000000 -21.000000
v 1.000000 0.000000 -21.000000
v -1.000000 0.000000 -23.000000
v 1.000000 0.000000 -23.000000
v -1.000000 0.000000 -23.000000
v 1.000000 0.000000 -23.000000
v -1.000000 0.000000 -25.000000
v 1.000000 0.000000 -25.000000
v 1.000000 0.000000 -25.000000
v 3.000000 0.000000 -25.000000
v 1.000000 0.000000 -27.000000
v 3.000000 0.000000 -27.000000
v 1.000000 0.000000 -21.000000
v 3.000000 0.000000 -21.000000
v 1.000000 0.000000 -23.000000
v 3.000000 0.000000 -23.000000
v 1.000000 0.000000 -23.000000
v 3.000000 0.000000 -23.000000
v 1.000000 0.000000 -25.000000
v 3.000000 0.000000 -25.000000
vn -0.0000 1.0000 -0.0000
vt 0.000000 0.000000
vt 1.000000 0.000000
vt 1.000000 1.000000
vt 0.000000 1.000000
s 0
usemtl Material.001
f 217/25/7 218/26/7 220/27/7 219/28/7
f 221/25/7 222/26/7 224/27/7 223/28/7
f 225/25/7 226/26/7 228/27/7 227/28/7
f 229/25/7 230/26/7 232/27/7 231/28/7
f 233/25/7 234/26/7 236/27/7 235/28/7
f 237/25/7 238/26/7 240/27/7 239/28/7
f 241/25/7 242/26/7 244/27/7 243/28/7
f 245/25/7 246/26/7 248/27/7 247/28/7
f 249/25/7 250/26/7 252/27/7 251/28/7
o floor.007
v -3.000000 0.000000 -31.000000
v -1.000000 0.000000 -31.000000
v -3.000000 0.000000 -33.000000
v -1.000000 0.000000 -33.000000
v -1.000000 0.000000 -31.000000
v 1.000000 0.000000 -31.000000
v -1.000000 0.000000 -33.000000
v 1.000000 0.000000 -33.000000
v -3.000000 0.000000 -27.000000
v -1.000000 0.000000 -27.000000
v -3.000000 0.000000 -29.000000
v -1.000000 0.000000 -29.000000
v -3.000000 0.000000 -29.000000
v -1.000000 0.000000 -29.000000
v -3.000000 0.000000 -31.000000
v -1.000000 0.000000 -31.000000
v -1.000000 0.000000 -27.000000
v 1.000000 0.000000 -27.000000
v -1.000000 0.000000 -29.000000
v 1.000000 0.000000 -29.000000
v -1.000000 0.000000 -29.000000
v 1.000000 0.000000 -29.000000
v -1.000000 0.000000 -31.000000
v 1.000000 0.000000 -31.000000
v 1.000000 0.000000 -31.000000
v 3.000000 0.000000 -31.000000
v 1.000000 0.000000 -33.000000
v 3.000000 0.000000 -33.000000
v 1.000000 0.000000 -27.000000
v 3.000000 0.000000 -27.000000
v 1.000000 0.000000 -29.000000
v 3.000000 0.000000 -29.000000
v 1.000000 0.000000 -29.000000
v 3.000000 0.000000 -29.000000
v 1.000000 0.000000 -31.000000
v 3.000000 0.000000 -31.000000
vn -0.0000 1.0000 -0.0000
vt 0.000000 0.000000
vt 1.000000 0.000000
vt 1.000000 1.000000
vt 0.000000 1.000000
s 0
usemtl Material.002
f 253/29/8 254/30/8 256/31/8 255/32/8
f 257/29/8 258/30/8 260/31/8 259/32/8
f 261/29/8 262/30/8 264/31/8 263/32/8
f 265/29/8 266/30/8 268/31/8 267/32/8
f 269/29/8 270/30/8 272/31/8 271/32/8
f 273/29/8 274/30/8 276/31/8 275/32/8
f 277/29/8 278/30/8 280/31/8 279/32/8
f 281/29/8 282/30/8 284/31/8 283/32/8
f 285/29/8 286/30/8 288/31/8 287/32/8
o floor.008
v 3.000000 0.000000 -31.000000
v 5.000000 0.000000 -31.000000
v 3.000000 0.000000 -33.000000
v 5.000000 0.000000 -33.000000
v 5.000000 0.000000 -31.000000
v 7.000000 0.000000 -31.000000
v 5.000000 0.000000 -33.000000
v 7.000000 0.000000 -33.000000
v 3.000000 0.000000 -27.000000
v 5.000000 0.000000 -27.000000
v 3.000000 0.000000 -29.000000
v 5.000000 0.000000 -29.000000
v 3.000000 0.000000 -29.000000
v 5.000000 0.000000 -29.000000
v 3.000000 0.000000 -31.000000
v 5.000000 0.000000 -31.000000
v 5.000000 0.000000 -27.000000
v 7.000000 0.000000 -27.000000
v 5.000000 0.000000 -29.000000
v 7.000000 0.000000 -29.000000
v 5.000000 0.000000 -29.000000
v 7.000000 0.000000 -29.000000
v 5.000000 0.000000 -31.000000
v 7.000000 0.000000 -31.000000
v 7.000000 0.000000 -31.000000
v 9.000000 0.000000 -31.000000
v 7.000000 0.000000 -33.000000
v 9.000000 0.000000 -33.000000
v 7.000000 0.000000 -27.000000
v 9.000000 0.000000 -27.000000
v 7.000000 0.000000 -29.000000
v 9.000000 0.000000 -29.000000
v 7.000000 0.000000 -29.000000
v 9.000000 0.000000 -29.000000
v 7.000000 0.000000 -31.000000
v 9.000000 0.000000 -31.000000
vn -0.0000 1.0000 -0.0000
vt 0.000000 0.000000
vt 1.000000 0.000000
vt 1.000000 1.000000
vt 0.000000 1.000000
s 0
usemtl Material.001
f 289/33/9 290/34/9 292/35/9 291/36/9
f 293/33/9 294/34/9 296/35/9 295/36/9
f 297/33/9 298/34/9 300/35/9 299/36/9
f 301/33/9 302/34/9 304/35/9 303/36/9
f 305/33/9 306/34/9 308/35/9 307/36/9
f 309/33/9 310/34/9 312/35/9 311/36/9
f 313/33/9 314/34/9 316/35/9 315/36/9
f 317/33/9 318/34/9 320/35/9 319/36/9
f 321/33/9 322/34/9 324/35/9 323/36/9
o floor.009
v 9.000000 0.000000 -31.000000
v 11.000000 0.000000 -31.000000
v 9.000000 0.000000 -33.000000
v 11.000000 0.000000 -33.000000
v 11.000000 0.000000 -31.000000
v 13.000000 0.000000 -31.000000
v 11.000000 0.000000 -33.000000
v 13.000000 0.000000 -33.000000
v 9.000000 0.000000 -27.000000
v 11.000000 0.000000 -27.000000
v 9.000000 0.000000 -29.000000
v 11.000000 0.000000 -29.000000
v 9.000000 0.000000 -29.000000
v 11.000000 0.000000 -29.000000
v 9.000000 0.000000 -31.000000
v 11.000000 0.000000 -31.000000
v 11.000000 0.000000 -27.000000
v 13.000000 0.000000 -27.000000
v 11.000000 0.000000 -29.000000
v 13.000000 0.000000 -29.000000
v 11.000000 0.000000 -29.000000
v 13.000000 0.000000 -29.000000
v 11.000000 0.000000 -31.000000
v 13.000000 0.000000 -31.000000
v 13.000000 0.000000 -31.000000
v 15.000000 0.000000 -31.000000
v 13.000000 0.000000 -33.000000
v 15.000000 0.000000 -33.000000
v 13.000000 0.000000 -27.000000
v 15.000000 0.000000 -27.000000
v 13.000000 0.000000 -29.000000
v 15.000000 0.000000 -29.000000
v 13.000000 0.000000 -29.000000
v 15.000000 0.000000 -29.000000
v 13.000000 0.000000 -31.000000
v 15.000000 0.000000 -31.000000
vn -0.0000 1.0000 -0.0000
vt 0.000000 0.000000
vt 1.000000 0.000000
vt 1.000000 1.000000
vt 0.000000 1.000000
s 0
usemtl Material.002
f 325/37/10 326/38/10 328/39/10 327/40/10
f 329/37/10 330/38/10 332/39/10 331/40/10
f 333/37/10 334/38/10 336/39/10 335/40/10
f 337/37/10 338/38/10 340/39/10 339/40/10
f 341/37/10 342/38/10 344/39/10 343/40/10
f 345/37/10 346/38/10 348/39/10 347/40/10
f 349/37/10 350/38/10 352/39/10 351/40/10
f 353/37/10 354/38/10 356/39/10 355/40/10
f 357/37/10 358/38/10 360/39/10 359/40/10
o floor.010
v -9.000000 0.000000 -31.000000
v -7.000000 0.000000 -31.000000
v -9.000000 0.000000 -33.000000
v -7.000000 0.000000 -33.000000
v -7.000000 0.000000 -31.000000
v -5.000000 0.000000 -31.000000
v -7.000000 0.000000 -33.000000
v -5.000000 0.000000 -33.000000
v -9.000000 0.000000 -27.000000
v -7.000000 0.000000 -27.000000
v -9.000000 0.000000 -29.000000
v -7.000000 0.000000 -29.000000
v -9.000000 0.000000 -29.000000
v -7.000000 0.000000 -29.000000
v -9.000000 0.000000 -31.000000
v -7.000000 0.000000 -31.000000
v -7.000000 0.000000 -27.000000
v -5.000000 0.000000 -27.000000
v -7.000000 0.000000 -29.000000
v -5.000000 0.000000 -29.000000
v -7.000000 0.000000 -29.000000
v -5.000000 0.000000 -29.000000
v -7.000000 0.000000 -31.000000
v -5.000000 0.000000 -31.000000
v -5.000000 0.000000 -31.000000
v -3.000000 0.000000 -31.000000
v -5.000000 0.000000 -33.000000
v -3.000000 0.000000 -33.000000
v -5.000000 0.000000 -27.000000
v -3.000000 0.000000 -27.000000
v -5.000000 0.000000 -29.000000
v -3.000000 0.000000 -29.000000
v -5.000000 0.000000 -29.000000
v -3.000000 0.000000 -29.000000
v -5.000000 0.000000 -31.000000
v -3.000000 0.000000 -31.000000
vn -0.0000 1.0000 -0.0000
vt 0.000000 0.000000
vt 1.000000 0.000000
vt 1.000000 1.000000
vt 0.000000 1.000000
s 0
usemtl Material.001
f 361/41/11 362/42/11 364/43/11 363/44/11
f 365/41/11 366/42/11 368/43/11 367/44/11
f 369/41/11 370/42/11 372/43/11 371/44/11
f 373/41/11 374/42/11 376/43/11 375/44/11
f 377/41/11 378/42/11 380/43/11 379/44/11
f 381/41/11 382/42/11 384/43/11 383/44/11
f 385/41/11 386/42/11 388/43/11 387/44/11
f 389/41/11 390/42/11 392/43/11 391/44/11
f 393/41/11 394/42/11 396/43/11 395/44/11
o floor.011
v -15.000000 0.000000 -31.000000
v -13.000000 0.000000 -31.000000
v -15.000000 0.000000 -33.000000
v -13.000000 0.000000 -33.000000
v -13.000000 0.000000 -31.000000
v -11.000000 0.000000 -31.000000
v -13.000000 0.000000 -33.000000
v -11.000000 0.000000 -33.000000
v -15.000000 0.000000 -27.000000
v -13.000000 0.000000 -27.000000
v -15.000000 0.000000 -29.000000
v -13.000000 0.000000 -29.000000
v -15.000000 0.000000 -29.000000
v -13.000000 0.000000 -29.000000
v -15.000000 0.000000 -31.000000
v -13.000000 0.000000 -31.000000
v -13.000000 0.000000 -27.000000
v -11.000000 0.000000 -27.000000
v -13.000000 0.000000 -29.000000
v -11.000000 0.000000 -29.000000
v -13.000000 0.000000 -29.000000
v -11.000000 0.000000 -29.000000
v -13.000000 0.000000 -31.000000
v -11.000000 0.000000 -31.000000
v -11.000000 0.000000 -31.000000
v -9.000000 0.000000 -31.000000
v -11.000000 0.000000 -33.000000
v -9.000000 0.000000 -33.000000
v -11.000000 0.000000 -27.000000
v -9.000000 0.000000 -27.000000
v -11.000000 0.000000 -29.000000
v -9.000000 0.000000 -29.000000
v -11.000000 0.000000 -29.000000
v -9.000000 0.000000 -29.000000
v -11.000000 0.000000 -31.000000
v -9.000000 0.000000 -31.000000
vn -0.0000 1.0000 -0.0000
vt 0.000000 0.000000
vt 1.000000 0.000000
vt 1.000000 1.000000
vt 0.000000 1.000000
s 0
usemtl Material.002
f 397/45/12 398/46/12 400/47/12 399/48/12
f 401/45/12 402/46/12 404/47/12 403/48/12
f 405/45/12 406/46/12 408/47/12 407/48/12
f 409/45/12 410/46/12 412/47/12 411/48/12
f 413/45/12 414/46/12 416/47/12 415/48/12
f 417/45/12 418/46/12 420/47/12 419/48/12
f 421/45/12 422/46/12 424/47/12 423/48/12
f 425/45/12 426/46/12 428/47/12 427/48/12
f 429/45/12 430/46/12 432/47/12 431/48/12
o floor.012
v -21.000000 0.000000 -31.000000
v -19.000000 0.000000 -31.000000
v -21.000000 0.000000 -33.000000
v -19.000000 0.000000 -33.000000
v -19.000000 0.000000 -31.000000
v -17.000000 0.000000 -31.000000
v -19.000000 0.000000 -33.000000
v -17.000000 0.000000 -33.000000
v -21.000000 0.000000 -27.000000
v -19.000000 0.000000 -27.000000
v -21.000000 0.000000 -29.000000
v -19.000000 0.000000 -29.000000
v -21.000000 0.000000 -29.000000
v -19.000000 0.000000 -29.000000
v -21.000000 0.000000 -31.000000
v -19.000000 0.000000 -31.000000
v -19.000000 0.000000 -27.000000
v -17.000000 0.000000 -27.000000
v -19.000000 0.000000 -29.000000
v -17.000000 0.000000 -29.000000
v -19.000000 0.000000 -29.000000
v -17.000000 0.000000 -29.000000
v -19.000000 0.000000 -31.000000
v -17.000000 0.000000 -31.000000
v -17.000000 0.000000 -31.000000
v -15.000000 0.000000 -31.000000
v -17.000000 0.000000 -33.000000
v -15.000000 0.000000 -33.000000
v -17.000000 0.000000 -27.000000
v -15.000000 0.000000 -27.000000
v -17.000000 0.000000 -29.000000
v -15.000000 0.000000 -29.000000
v -17.000000 0.000000 -29.000000
v -15.000000 0.000000 -29.000000
v -17.000000 0.000000 -31.000000
v -15.000000 0.000000 -31.000000
vn -0.0000 1.0000 -0.0000
vt 0.000000 0.000000
vt 1.000000 0.000000
vt 1.000000 1.000000
vt 0.000000 1.000000
s 0
usemtl Material.001
f 433/49/13 434/50/13 436/51/13 435/52/13
f 437/49/13 438/50/13 440/51/13 439/52/13
f 441/49/13 442/50/13 444/51/13 443/52/13
f 445/49/13 446/50/13 448/51/13 447/52/13
f 449/49/13 450/50/13 452/51/13 451/52/13
f 453/49/13 454/50/13 456/51/13 455/52/13
f 457/49/13 458/50/13 460/51/13 459/52/13
f 461/49/13 462/50/13 464/51/13 463/52/13
f 465/49/13 466/50/13 468/51/13 467/52/13
o floor.013
v -27.000000 0.000000 -31.000000
v -25.000000 0.000000 -31.000000
v -27.000000 0.000000 -33.000000
v -25.000000 0.000000 -33.000000
v -25.000000 0.000000 -31.000000
v -23.000000 0.000000 -31.000000
v -25.000000 0.000000 -33.000000
v -23.000000 0.000000 -33.000000
v -27.000000 0.000000 -27.000000
v -25.000000 0.000000 -27.000000
v -27.000000 0.000000 -29.000000
v -25.000000 0.000000 -29.000000
v -27.000000 0.000000 -29.000000
v -25.000000 0.000000 -29.000000
v -27.000000 0.000000 -31.000000
v -25.000000 0.000000 -31.000000
v -25.000000 0.000000 -27.000000
v -23.000000 0.000000 -27.000000
v -25.000000 0.000000 -29.000000
v -23.000000 0.000000 -29.000000
v -25.000000 0.000000 -29.000000
v -23.000000 0.000000 -29.000000
v -25.000000 0.000000 -31.000000
v -23.000000 0.000000 -31.000000
v -23.000000 0.000000 -31.000000
v -21.000000 0.000000 -31.000000
v -23.000000 0.000000 -33.000000
v -21.000000 0.000000 -33.000000
v -23.000000 0.000000 -27.000000
v -21.000000 0.000000 -27.000000
v -23.000000 0.000000 -29.000000
v -21.000000 0.000000 -29.000000
v -23.000000 0.000000 -29.000000
v -21.000000 0.000000 -29.000000
v -23.000000 0.000000 -31.000000
v -21.000000 0.000000 -31.000000
vn -0.0000 1.0000 -0.0000
vt 0.000000 0.000000
vt 1.000000 0.000000
vt 1.000000 1.000000
vt 0.000000 1.000000
s 0
usemtl Material.002
f 469/53/14 470/54/14 472/55/14 471/56/14
f 473/53/14 474/54/14 476/55/14 475/56/14
f 477/53/14 478/54/14 480/55/14 479/56/14
f 481/53/14 482/54/14 484/55/14 483/56/14
f 485/53/14 486/54/14 488/55/14 487/56/14
f 489/53/14 490/54/14 492/55/14 491/56/14
f 493/53/14 494/54/14 496/55/14 495/56/14
f 497/53/14 498/54/14 500/55/14 499/56/14
f 501/53/14 502/54/14 504/55/14 503/56/14
o floor.014
v -27.000000 0.000000 -37.000000
v -25.000000 0.000000 -37.000000
v -27.000000 0.000000 -39.000000
v -25.000000 0.000000 -39.000000
v -25.000000 0.000000 -37.000000
v -23.000000 0.000000 -37.000000
v -25.000000 0.000000 -39.000000
v -23.000000 0.000000 -39.000000
v -27.000000 0.000000 -33.000000
v -25.000000 0.000000 -33.000000
v -27.000000 0.000000 -35.000000
v -25.000000 0.000000 -35.000000
v -27.000000 0.000000 -35.000000
v -25.000000 0.000000 -35.000000
v -27.000000 0.000000 -37.000000
v -25.000000 0.000000 -37.000000
v -25.000000 0.000000 -33.000000
v -23.000000 0.000000 -33.000000
v -25.000000 0.000000 -35.000000
v -23.000000 0.000000 -35.000000
v -25.000000 0.000000 -35.000000
v -23.000000 0.000000 -35.000000
v -25.000000 0.000000 -37.000000
v -23.000000 0.000000 -37.000000
v -23.000000 0.000000 -37.000000
v -21.000000 0.000000 -37.000000
v -23.000000 0.000000 -39.000000
v -21.000000 0.000000 -39.000000
v -23.000000 0.000000 -33.000000
v -21.000000 0.000000 -33.000000
v -23.000000 0.000000 -35.000000
v -21.000000 0.000000 -35.000000
v -23.000000 0.000000 -35.000000
v -21.000000 0.000000 -35.000000
v -23.000000 0.000000 -37.000000
v -21.000000 0.000000 -37.000000
vn -0.0000 1.0000 -0.0000
vt 0.000000 0.000000
vt 1.000000 0.000000
vt 1.000000 1.000000
vt 0.000000 1.000000
s 0
usemtl Material.001
f 505/57/15 506/58/15 508/59/15 507/60/15
f 509/57/15 510/58/15 512/59/15 511/60/15
f 513/57/15 514/58/15 516/59/15 515/60/15
f 517/57/15 518/58/15 520/59/15 519/60/15
f 521/57/15 522/58/15 524/59/15 523/60/15
f 525/57/15 526/58/15 528/59/15 527/60/15
f 529/57/15 530/58/15 532/59/15 531/60/15
f 533/57/15 534/58/15 536/59/15 535/60/15
f 537/57/15 538/58/15 540/59/15 539/60/15
o floor.015
v -27.000000 0.000000 -43.000000
v -25.000000 0.000000 -43.000000
v -27.000000 0.000000 -45.000000
v -25.000000 0.000000 -45.000000
v -25.000000 0.000000 -43.000000
v -23.000000 0.000000 -43.000000
v -25.000000 0.000000 -45.000000
v -23.000000 0.000000 -45.000000
v -27.000000 0.000000 -39.000000
v -25.000000 0.000000 -39.000000
v -27.000000 0.000000 -41.000000
v -25.000000 0.000000 -41.000000
v -27.000000 0.000000 -41.000000
v -25.000000 0.000000 -41.000000
v -27.000000 0.000000 -43.000000
v -25.000000 0.000000 -43.000000
v -25.000000 0.000000 -39.000000
v -23.000000 0.000000 -39.000000
v -25.000000 0.000000 -41.000000
v -23.000000 0.000000 -41.000000
v -25.000000 0.000000 -41.000000
v -23.000000 0.000000 -41.000000
v -25.000000 0.000000 -43.000000
v -23.000000 0.000000 -43.000000
v -23.000000 0.000000 -43.000000
v -21.000000 0.000000 -43.000000
v -23.000000 0.000000 -45.000000
v -21.000000 0.000000 -45.000000
v -23.000000 0.000000 -39.000000
v -21.000000 0.000000 -39.000000
v -23.000000 0.000000 -41.000000
v -21.000000 0.000000 -41.000000
v -23.000000 0.000000 -41.000000
v -21.000000 0.000000 -41.000000
v -23.000000 0.000000 -43.000000
v -21.000000 0.000000 -43.000000
vn -0.0000 1.0000 -0.0000
vt 0.000000 0.000000
vt 1.000000 0.000000
vt 1.000000 1.000000
vt 0.000000 1.000000
s 0
usemtl Material.002
f 541/61/16 542/62/16 544/63/16 543/64/16
f 545/61/16 546/62/16 548/63/16 547/64/16
f 549/61/16 550/62/16 552/63/16 551/64/16
f 553/61/16 554/62/16 556/63/16 555/64/16
f 557/61/16 558/62/16 560/63/16 559/64/16
f 561/61/16 562/62/16 564/63/16 563/64/16
f 565/61/16 566/62/16 568/63/16 567/64/16
f 569/61/16 570/62/16 572/63/16 571/64/16
f 573/61/16 574/62/16 576/63/16 575/64/16
o floor.017
v 21.000000 0.000000 -31.000000
v 23.000000 0.000000 -31.000000
v 21.000000 0.000000 -33.000000
v 23.000000 0.000000 -33.000000
v 23.000000 0.000000 -31.000000
v 25.000000 0.000000 -31.000000
v 23.000000 0.000000 -33.000000
v 25.000000 0.000000 -33.000000
v 21.000000 0.000000 -27.000000
v 23.000000 0.000000 -27.000000
v 21.000000 0.000000 -29.000000
v 23.000000 0.000000 -29.000000
v 21.000000 0.000000 -29.000000
v 23.000000 0.000000 -29.000000
v 21.000000 0.000000 -31.000000
v 23.000000 0.000000 -31.000000
v 23.000000 0.000000 -27.000000
v 25.000000 0.000000 -27.000000
v 23.000000 0.000000 -29.000000
v 25.000000 0.000000 -29.000000
v 23.000000 0.000000 -29.000000
v 25.000000 0.000000 -29.000000
v 23.000000 0.000000 -31.000000
v 25.000000 0.000000 -31.000000
v 25.000000 0.000000 -31.000000
v 27.000000 0.000000 -31.000000
v 25.000000 0.000000 -33.000000
v 27.000000 0.000000 -33.000000
v 25.000000 0.000000 -27.000000
v 27.000000 0.000000 -27.000000
v 25.000000 0.000000 -29.000000
v 27.000000 0.000000 -29.000000
v 25.000000 0.000000 -29.000000
v 27.000000 0.000000 -29.000000
v 25.000000 0.000000 -31.000000
v 27.000000 0.000000 -31.000000
vn -0.0000 1.0000 -0.0000
vt 0.000000 0.000000
vt 1.000000 0.000000
vt 1.000000 1.000000
vt 0.000000 1.000000
s 0
usemtl Material.001
f 577/65/17 578/66/17 580/67/17 579/68/17
f 581/65/17 582/66/17 584/67/17 583/68/17
f 585/65/17 586/66/17 588/67/17 587/68/17
f 589/65/17 590/66/17 592/67/17 591/68/17
f 593/65/17 594/66/17 596/67/17 595/68/17
f 597/65/17 598/66/17 600/67/17 599/68/17
f 601/65/17 602/66/17 604/67/17 603/68/17
f 605/65/17 606/66/17 608/67/17 607/68/17
f 609/65/17 610/66/17 612/67/17 611/68/17
o floor.016
v 15.000000 0.000000 -31.000000
v 17.000000 0.000000 -31.000000
v 15.000000 0.000000 -33.000000
v 17.000000 0.000000 -33.000000
v 17.000000 0.000000 -31.000000
v 19.000000 0.000000 -31.000000
v 17.000000 0.000000 -33.000000
v 19.000000 0.000000 -33.000000
v 15.000000 0.000000 -27.000000
v 17.000000 0.000000 -27.000000
v 15.000000 0.000000 -29.000000
v 17.000000 0.000000 -29.000000
v 15.000000 0.000000 -29.000000
v 17.000000 0.000000 -29.000000
v 15.000000 0.000000 -31.000000
v 17.000000 0.000000 -31.000000
v 17.000000 0.000000 -27.000000
v 19.000000 0.000000 -27.000000
v 17.000000 0.000000 -29.000000
v 19.000000 0.000000 -29.000000
v 17.000000 0.000000 -29.000000
v 19.000000 0.000000 -29.000000
v 17.000000 0.000000 -31.000000
v 19.000000 0.000000 -31.000000
v 19.000000 0.000000 -31.000000
v 21.000000 0.000000 -31.000000
v 19.000000 0.000000 -33.000000
v 21.000000 0.000000 -33.000000
v 19.000000 0.000000 -27.000000
v 21.000000 0.000000 -27.000000
v 19.000000 0.000000 -29.000000
v 21.000000 0.000000 -29.000000
v 19.000000 0.000000 -29.000000
v 21.000000 0.000000 -29.000000
v 19.000000 0.000000 -31.000000
v 21.000000 0.000000 -31.000000
vn -0.0000 1.0000 -0.0000
vt 0.000000 0.000000
vt 1.000000 0.000000
vt 1.000000 1.000000
vt 0.000000 1.000000
s 0
usemtl Material.002
f 613/69/18 614/70/18 616/71/18 615/72/18
f 617/69/18 618/70/18 620/71/18 619/72/18
f 621/69/18 622/70/18 624/71/18 623/72/18
f 625/69/18 626/70/18 628/71/18 627/72/18
f 629/69/18 630/70/18 632/71/18 631/72/18
f 633/69/18 634/70/18 636/71/18 635/72/18
f 637/69/18 638/70/18 640/71/18 639/72/18
f 641/69/18 642/70/18 644/71/18 643/72/18
f 645/69/18 646/70/18 648/71/18 647/72/18
o floor.018
v 15.000000 0.000000 -37.000000
v 17.000000 0.000000 -37.000000
v 15.000000 0.000000 -39.000000
v 17.000000 0.000000 -39.000000
v 17.000000 0.000000 -37.000000
v 19.000000 0.000000 -37.000000
v 17.000000 0.000000 -39.000000
v 19.000000 0.000000 -39.000000
v 15.000000 0.000000 -33.000000
v 17.000000 0.000000 -33.000000
v 15.000000 0.000000 -35.000000
v 17.000000 0.000000 -35.000000
v 15.000000 0.000000 -35.000000
v 17.000000 0.000000 -35.000000
v 15.000000 0.000000 -37.000000
v 17.000000 0.000000 -37.000000
v 17.000000 0.000000 -33.000000
v 19.000000 0.000000 -33.000000
v 17.000000 0.000000 -35.000000
v 19.000000 0.000000 -35.000000
v 17.000000 0.000000 -35.000000
v 19.000000 0.000000 -35.000000
v 17.000000 0.000000 -37.000000
v 19.000000 0.000000 -37.000000
v 19.000000 0.000000 -37.000000
v 21.000000 0.000000 -37.000000
v 19.000000 0.000000 -39.000000
v 21.000000 0.000000 -39.000000
v 19.000000 0.000000 -33.000000
v 21.000000 0.000000 -33.000000
v 19.000000 0.000000 -35.000000
v 21.000000 0.000000 -35.000000
v 19.000000 0.000000 -35.000000
v 21.000000 0.000000 -35.000000
v 19.000000 0.000000 -37.000000
v 21.000000 0.000000 -37.000000
vn -0.0000 1.0000 -0.0000
vt 0.000000 0.000000
vt 1.000000 0.000000
vt 1.000000 1.000000
vt 0.000000 1.000000
s 0
usemtl Material.001
f 649/73/19 650/74/19 652/75/19 651/76/19
f 653/73/19 654/74/19 656/75/19 655/76/19
f 657/73/19 658/74/19 660/75/19 659/76/19
f 661/73/19 662/74/19 664/75/19 663/76/19
f 665/73/19 666/74/19 668/75/19 667/76/19
f 669/73/19 670/74/19 672/75/19 671/76/19
f 673/73/19 674/74/19 676/75/19 675/76/19
f 677/73/19 678/74/19 680/75/19 679/76/19
f 681/73/19 682/74/19 684/75/19 683/76/19
o floor.019
v 15.000000 0.000000 -43.000000
v 17.000000 0.000000 -43.000000
v 15.000000 0.000000 -45.000000
v 17.000000 0.000000 -45.000000
v 17.000000 0.000000 -43.000000
v 19.000000 0.000000 -43.000000
v 17.000000 0.000000 -45.000000
v 19.000000 0.000000 -45.000000
v 15.000000 0.000000 -39.000000
v 17.000000 0.000000 -39.000000
v 15.000000 0.000000 -41.000000
v 17.000000 0.000000 -41.000000
v 15.000000 0.000000 -41.000000
v 17.000000 0.000000 -41.000000
v 15.000000 0.000000 -43.000000
v 17.000000 0.000000 -43.000000
v 17.000000 0.000000 -39.000000
v 19.000000 0.000000 -39.000000
v 17.000000 0.000000 -41.000000
v 19.000000 0.000000 -41.000000
v 17.000000 0.000000 -41.000000
v 19.000000 0.000000 -41.000000
v 17.000000 0.000000 -43.000000
v 19.000000 0.000000 -43.000000
v 19.000000 0.000000 -43.000000
v 21.000000 0.000000 -43.000000
v 19.000000 0.000000 -45.000000
v 21.000000 0.000000 -45.000000
v 19.000000 0.000000 -39.000000
v 21.000000 0.000000 -39.000000
v 19.000000 0.000000 -41.000000
v 21.000000 0.000000 -41.000000
v 19.000000 0.000000 -41.000000
v 21.000000 0.000000 -41.000000
v 19.000000 0.000000 -43.000000
v 21.000000 0.000000 -43.000000
vn -0.0000 1.0000 -0.0000
vt 0.000000 0.000000
vt 1.000000 0.000000
vt 1.000000 1.000000
vt 0.000000 1.000000
s 0
usemtl Material.002
f 685/77/20 686/78/20 688/79/20 687/80/20
f 689/77/20 690/78/20 692/79/20 691/80/20
f 693/77/20 694/78/20 696/79/20 695/80/20
f 697/77/20 698/78/20 700/79/20 699/80/20
f 701/77/20 702/78/20 704/79/20 703/80/20
f 705/77/20 706/78/20 708/79/20 707/80/20
f 709/77/20 710/78/20 712/79/20 711/80/20
f 713/77/20 714/78/20 716/79/20 715/80/20
f 717/77/20 718/78/20 720/79/20 719/80/20
o floor.020
v 15.000000 0.000000 -49.000000
v 17.000000 0.000000 -49.000000
v 15.000000 0.000000 -51.000000
v 17.000000 0.000000 -51.000000
v 17.000000 0.000000 -49.000000
v 19.000000 0.000000 -49.000000
v 17.000000 0.000000 -51.000000
v 19.000000 0.000000 -51.000000
v 15.000000 0.000000 -45.000000
v 17.000000 0.000000 -45.000000
v 15.000000 0.000000 -47.000000
v 17.000000 0.000000 -47.000000
v 15.000000 0.000000 -47.000000
v 17.000000 0.000000 -47.000000
v 15.000000 0.000000 -49.000000
v 17.000000 0.000000 -49.000000
v 17.000000 0.000000 -45.000000
v 19.000000 0.000000 -45.000000
v 17.000000 0.000000 -47.000000
v 19.000000 0.000000 -47.000000
v 17.000000 0.000000 -47.000000
v 19.000000 0.000000 -47.000000
v 17.000000 0.000000 -49.000000
v 19.000000 0.000000 -49.000000
v 19.000000 0.000000 -49.000000
v 21.000000 0.000000 -49.000000
v 19.000000 0.000000 -51.000000
v 21.000000 0.000000 -51.000000
v 19.000000 0.000000 -45.000000
v 21.000000 0.000000 -45.000000
v 19.000000 0.000000 -47.000000
v 21.000000 0.000000 -47.000000
v 19.000000 0.000000 -47.000000
v 21.000000 0.000000 -47.000000
v 19.000000 0.000000 -49.000000
v 21.000000 0.000000 -49.000000
vn -0.0000 1.0000 -0.0000
vt 0.000000 0.000000
vt 1.000000 0.000000
vt 1.000000 1.000000
vt 0.000000 1.000000
s 0
usemtl Material.001
f 721/81/21 722/82/21 724/83/21 723/84/21
f 725/81/21 726/82/21 728/83/21 727/84/21
f 729/81/21 730/82/21 732/83/21 731/84/21
f 733/81/21 734/82/21 736/83/21 735/84/21
f 737/81/21 738/82/21 740/83/21 739/84/21
f 741/81/21 742/82/21 744/83/21 743/84/21
f 745/81/21 746/82/21 748/83/21 747/84/21
f 749/81/21 750/82/21 752/83/21 751/84/21
f 753/81/21 754/82/21 756/83/21 755/84/21
o floor.021
v 15.000000 0.000000 -55.000000
v 17.000000 0.000000 -55.000000
v 15.000000 0.000000 -57.000000
v 17.000000 0.000000 -57.000000
v 17.000000 0.000000 -55.000000
v 19.000000 0.000000 -55.000000
v 17.000000 0.000000 -57.000000
v 19.000000 0.000000 -57.000000
v 15.000000 0.000000 -51.000000
v 17.000000 0.000000 -51.000000
v 15.000000 0.000000 -53.000000
v 17.000000 0.000000 -53.000000
v 15.000000 0.000000 -53.000000
v 17.000000 0.000000 -53.000000
v 15.000000 0.000000 -55.000000
v 17.000000 0.000000 -55.000000
v 17.000000 0.000000 -51.000000
v 19.000000 0.000000 -51.000000
v 17.000000 0.000000 -53.000000
v 19.000000 0.000000 -53.000000
v 17.000000 0.000000 -53.000000
v 19.000000 0.000000 -53.000000
v 17.000000 0.000000 -55.000000
v 19.000000 0.000000 -55.000000
v 19.000000 0.000000 -55.000000
v 21.000000 0.000000 -55.000000
v 19.000000 0.000000 -57.000000
v 21.000000 0.000000 -57.000000
v 19.000000 0.000000 -51.000000
v 21.000000 0.000000 -51.000000
v 19.000000 0.000000 -53.000000
v 21.000000 0.000000 -53.000000
v 19.000000 0.000000 -53.000000
v 21.000000 0.000000 -53.000000
v 19.000000 0.000000 -55.000000
v 21.000000 0.000000 -55.000000
vn -0.0000 1.0000 -0.0000
vt 0.000000 0.000000
vt 1.000000 0.000000
vt 1.000000 1.000000
vt 0.000000 1.000000
s 0
usemtl Material.002
f 757/85/22 758/86/22 760/87/22 759/88/22
f 761/85/22 762/86/22 764/87/22 763/88/22
f 765/85/22 766/86/22 768/87/22 767/88/22
f 769/85/22 770/86/22 772/87/22 771/88/22
f 773/85/22 774/86/22 776/87/22 775/88/22
f 777/85/22 778/86/22 780/87/22 779/88/22
f 781/85/22 782/86/22 784/87/22 783/88/22
f 785/85/22 786/86/22 788/87/22 787/88/22
f 789/85/22 790/86/22 792/87/22 791/88/22
